<svg width="25" height="24" viewBox="0 0 25 24" fill="none" xmlns="http://www.w3.org/2000/svg">
<path d="M9.51852 22.5C11.912 22.5 14.1004 22.1591 15.7081 21.5929C16.5097 21.3106 17.194 20.9629 17.6875 20.552C18.1782 20.1434 18.537 19.6214 18.537 19C18.537 18.3786 18.1782 17.8566 17.6875 17.448C17.194 17.0371 16.5097 16.6894 15.7081 16.4071C14.1004 15.8409 11.912 15.5 9.51852 15.5C7.12503 15.5 4.93665 15.8409 3.32893 16.4071C2.52734 16.6894 1.84307 17.0371 1.34949 17.448C0.858827 17.8566 0.5 18.3786 0.5 19C0.5 19.6214 0.858827 20.1434 1.34949 20.552C1.84307 20.9629 2.52734 21.3106 3.32893 21.5929C4.93665 22.1591 7.12503 22.5 9.51852 22.5Z" fill="url(#paint0_linear_12_1753)" stroke="#111111"/>
<path d="M9.51852 19.5C11.912 19.5 14.1004 19.1591 15.7081 18.5929C16.5097 18.3106 17.194 17.9629 17.6875 17.552C18.1782 17.1434 18.537 16.6214 18.537 16C18.537 15.3786 18.1782 14.8566 17.6875 14.448C17.194 14.0371 16.5097 13.6894 15.7081 13.4071C14.1004 12.8409 11.912 12.5 9.51852 12.5C7.12503 12.5 4.93665 12.8409 3.32893 13.4071C2.52734 13.6894 1.84307 14.0371 1.34949 14.448C0.858827 14.8566 0.5 15.3786 0.5 16C0.5 16.6214 0.858827 17.1434 1.34949 17.552C1.84307 17.9629 2.52734 18.3106 3.32893 18.5929C4.93665 19.1591 7.12503 19.5 9.51852 19.5Z" fill="url(#paint1_linear_12_1753)" stroke="#111111"/>
<path d="M9.51852 16.5C11.912 16.5 14.1004 16.1591 15.7081 15.5929C16.5097 15.3106 17.194 14.9629 17.6875 14.552C18.1782 14.1434 18.537 13.6214 18.537 13C18.537 12.3786 18.1782 11.8566 17.6875 11.448C17.194 11.0371 16.5097 10.6894 15.7081 10.4071C14.1004 9.84087 11.912 9.5 9.51852 9.5C7.12503 9.5 4.93665 9.84087 3.32893 10.4071C2.52734 10.6894 1.84307 11.0371 1.34949 11.448C0.858827 11.8566 0.5 12.3786 0.5 13C0.5 13.6214 0.858827 14.1434 1.34949 14.552C1.84307 14.9629 2.52734 15.3106 3.32893 15.5929C4.93665 16.1591 7.12503 16.5 9.51852 16.5Z" fill="url(#paint2_linear_12_1753)" stroke="#111111"/>
<path d="M9.51852 13.5C11.912 13.5 14.1004 13.1591 15.7081 12.5929C16.5097 12.3106 17.194 11.9629 17.6875 11.552C18.1782 11.1434 18.537 10.6214 18.537 10C18.537 9.37862 18.1782 8.85657 17.6875 8.44802C17.194 8.03706 16.5097 7.68937 15.7081 7.40707C14.1004 6.84087 11.912 6.5 9.51852 6.5C7.12503 6.5 4.93665 6.84087 3.32893 7.40707C2.52734 7.68937 1.84307 8.03706 1.34949 8.44802C0.858827 8.85657 0.5 9.37862 0.5 10C0.5 10.6214 0.858827 11.1434 1.34949 11.552C1.84307 11.9629 2.52734 12.3106 3.32893 12.5929C4.93665 13.1591 7.12503 13.5 9.51852 13.5Z" fill="url(#paint3_linear_12_1753)" stroke="#111111"/>
<path d="M9.51852 10.5C11.912 10.5 14.1004 10.1591 15.7081 9.59293C16.5097 9.31063 17.194 8.96294 17.6875 8.55198C18.1782 8.14343 18.537 7.62138 18.537 7C18.537 6.37862 18.1782 5.85657 17.6875 5.44802C17.194 5.03706 16.5097 4.68937 15.7081 4.40707C14.1004 3.84087 11.912 3.5 9.51852 3.5C7.12503 3.5 4.93665 3.84087 3.32893 4.40707C2.52734 4.68937 1.84307 5.03706 1.34949 5.44802C0.858827 5.85657 0.5 6.37862 0.5 7C0.5 7.62138 0.858827 8.14343 1.34949 8.55198C1.84307 8.96294 2.52734 9.31063 3.32893 9.59293C4.93665 10.1591 7.12503 10.5 9.51852 10.5Z" fill="url(#paint4_linear_12_1753)" stroke="#111111"/>
<path d="M9.51852 7.5C11.912 7.5 14.1004 7.15913 15.7081 6.59293C16.5097 6.31063 17.194 5.96294 17.6875 5.55198C18.1782 5.14343 18.537 4.62138 18.537 4C18.537 3.37862 18.1782 2.85657 17.6875 2.44802C17.194 2.03706 16.5097 1.68937 15.7081 1.40707C14.1004 0.840873 11.912 0.5 9.51852 0.5C7.12503 0.5 4.93665 0.840873 3.32893 1.40707C2.52734 1.68937 1.84307 2.03706 1.34949 2.44802C0.858827 2.85657 0.5 3.37862 0.5 4C0.5 4.62138 0.858827 5.14343 1.34949 5.55198C1.84307 5.96294 2.52734 6.31063 3.32893 6.59293C4.93665 7.15913 7.12503 7.5 9.51852 7.5Z" fill="url(#paint5_linear_12_1753)" stroke="#111111"/>
<path d="M16.7593 23.5C18.799 23.5 20.6669 23.2153 22.0424 22.7404C22.7278 22.5038 23.3182 22.2106 23.7472 21.8604C24.1723 21.5134 24.5 21.0565 24.5 20.5C24.5 19.9435 24.1723 19.4866 23.7472 19.1396C23.3182 18.7894 22.7278 18.4962 22.0424 18.2596C20.6669 17.7847 18.799 17.5 16.7593 17.5C14.7195 17.5 12.8516 17.7847 11.4761 18.2596C10.7907 18.4962 10.2003 18.7894 9.77135 19.1396C9.34618 19.4866 9.01852 19.9435 9.01852 20.5C9.01852 21.0565 9.34618 21.5134 9.77135 21.8604C10.2003 22.2106 10.7907 22.5038 11.4761 22.7404C12.8516 23.2153 14.7195 23.5 16.7593 23.5Z" fill="url(#paint6_linear_12_1753)" stroke="#111111"/>
<path d="M16.7593 20.5C18.799 20.5 20.6669 20.2153 22.0424 19.7404C22.7278 19.5038 23.3182 19.2106 23.7472 18.8604C24.1723 18.5134 24.5 18.0565 24.5 17.5C24.5 16.9435 24.1723 16.4866 23.7472 16.1396C23.3182 15.7894 22.7278 15.4962 22.0424 15.2596C20.6669 14.7847 18.799 14.5 16.7593 14.5C14.7195 14.5 12.8516 14.7847 11.4761 15.2596C10.7907 15.4962 10.2003 15.7894 9.77135 16.1396C9.34618 16.4866 9.01852 16.9435 9.01852 17.5C9.01852 18.0565 9.34618 18.5134 9.77135 18.8604C10.2003 19.2106 10.7907 19.5038 11.4761 19.7404C12.8516 20.2153 14.7195 20.5 16.7593 20.5Z" fill="url(#paint7_linear_12_1753)" stroke="#111111"/>
<path d="M16.7593 17.5C18.799 17.5 20.6669 17.2153 22.0424 16.7404C22.7278 16.5038 23.3182 16.2106 23.7472 15.8604C24.1723 15.5134 24.5 15.0565 24.5 14.5C24.5 13.9435 24.1723 13.4866 23.7472 13.1396C23.3182 12.7894 22.7278 12.4962 22.0424 12.2596C20.6669 11.7847 18.799 11.5 16.7593 11.5C14.7195 11.5 12.8516 11.7847 11.4761 12.2596C10.7907 12.4962 10.2003 12.7894 9.77135 13.1396C9.34618 13.4866 9.01852 13.9435 9.01852 14.5C9.01852 15.0565 9.34618 15.5134 9.77135 15.8604C10.2003 16.2106 10.7907 16.5038 11.4761 16.7404C12.8516 17.2153 14.7195 17.5 16.7593 17.5Z" fill="url(#paint8_linear_12_1753)" stroke="#111111"/>
<defs>
<linearGradient id="paint0_linear_12_1753" x1="18.037" y1="16" x2="14.2773" y2="26.6759" gradientUnits="userSpaceOnUse">
<stop stop-color="#FF3CAC"/>
<stop offset="0.510417" stop-color="#784BA0"/>
<stop offset="1" stop-color="#2B86C5"/>
</linearGradient>
<linearGradient id="paint1_linear_12_1753" x1="18.037" y1="13" x2="14.2773" y2="23.6759" gradientUnits="userSpaceOnUse">
<stop stop-color="#FF3CAC"/>
<stop offset="0.510417" stop-color="#784BA0"/>
<stop offset="1" stop-color="#2B86C5"/>
</linearGradient>
<linearGradient id="paint2_linear_12_1753" x1="18.037" y1="10" x2="14.2773" y2="20.6759" gradientUnits="userSpaceOnUse">
<stop stop-color="#FF3CAC"/>
<stop offset="0.510417" stop-color="#784BA0"/>
<stop offset="1" stop-color="#2B86C5"/>
</linearGradient>
<linearGradient id="paint3_linear_12_1753" x1="18.037" y1="7" x2="14.2773" y2="17.6759" gradientUnits="userSpaceOnUse">
<stop stop-color="#FF3CAC"/>
<stop offset="0.510417" stop-color="#784BA0"/>
<stop offset="1" stop-color="#2B86C5"/>
</linearGradient>
<linearGradient id="paint4_linear_12_1753" x1="18.037" y1="4" x2="14.2773" y2="14.6759" gradientUnits="userSpaceOnUse">
<stop stop-color="#FF3CAC"/>
<stop offset="0.510417" stop-color="#784BA0"/>
<stop offset="1" stop-color="#2B86C5"/>
</linearGradient>
<linearGradient id="paint5_linear_12_1753" x1="18.037" y1="1" x2="14.2773" y2="11.6759" gradientUnits="userSpaceOnUse">
<stop stop-color="#FF3CAC"/>
<stop offset="0.510417" stop-color="#784BA0"/>
<stop offset="1" stop-color="#2B86C5"/>
</linearGradient>
<linearGradient id="paint6_linear_12_1753" x1="24" y1="18" x2="20.9151" y2="26.9349" gradientUnits="userSpaceOnUse">
<stop stop-color="#FF3CAC"/>
<stop offset="0.510417" stop-color="#784BA0"/>
<stop offset="1" stop-color="#2B86C5"/>
</linearGradient>
<linearGradient id="paint7_linear_12_1753" x1="24" y1="15" x2="20.9151" y2="23.9349" gradientUnits="userSpaceOnUse">
<stop stop-color="#FF3CAC"/>
<stop offset="0.510417" stop-color="#784BA0"/>
<stop offset="1" stop-color="#2B86C5"/>
</linearGradient>
<linearGradient id="paint8_linear_12_1753" x1="24" y1="12" x2="20.9151" y2="20.9349" gradientUnits="userSpaceOnUse">
<stop stop-color="#FF3CAC"/>
<stop offset="0.510417" stop-color="#784BA0"/>
<stop offset="1" stop-color="#2B86C5"/>
</linearGradient>
</defs>
</svg>
